ffmpeg started on 2025-05-12 at 14:08:18
Report written to "D:\Convert\FFMetrics\reports\psnr_report-6.txt"
Log level: 32
Command line:
ffmpeg -hide_banner -nostdin -i "G:\\\xc0\xed\xe8\xec\xe5\\\xce\xed\xe3\xee\xe8\xed\xe3\xe8\\!_35_\xcb\xe5\xf2\xee_2024\\DreamCast\\\xc2\xe8\xf2\xf3\xe1\xe5\xf0 - \xdf \xf1\xf2\xe0\xeb\xe0 \xef\xee\xef\xf3\xeb\xff\xf0\xed\xee\xe9 \xef\xee\xf1\xeb\xe5 \xf2\xee\xe3\xee, \xea\xe0\xea \xe7\xe0\xe1\xfb\xeb\xe0 \xe2\xfb\xea\xeb\xfe\xf7\xe8\xf2\xfc \xf1\xf2\xf0\xe8\xec\\[DC] Vden - 04_Telegram_HEVC.mkv" -i "G:\\\xc0\xed\xe8\xec\xe5\\\xce\xed\xe3\xee\xe8\xed\xe3\xe8\\!_35_\xcb\xe5\xf2\xee_2024\\DreamCast\\\xc2\xe8\xf2\xf3\xe1\xe5\xf0 - \xdf \xf1\xf2\xe0\xeb\xe0 \xef\xee\xef\xf3\xeb\xff\xf0\xed\xee\xe9 \xef\xee\xf1\xeb\xe5 \xf2\xee\xe3\xee, \xea\xe0\xea \xe7\xe0\xe1\xfb\xeb\xe0 \xe2\xfb\xea\xeb\xfe\xf7\xe8\xf2\xfc \xf1\xf2\xf0\xe8\xec\\[DC] Vden - 04_Telegram.mp4" -lavfi "[0:v]settb=AVTB,setpts=PTS-STARTPTS,format=pix_fmts=yuv420p10,fps=24000/1001,scale=1920:1080:flags=bicubic[main];[1:v]settb=AVTB,setpts=PTS-STARTPTS,format=pix_fmts=yuv420p,fps=24000/1001,scale=1920:1080:flags=bicubic[ref];[main][ref]psnr=eof_action=endall:stats_file='D\\:/Convert/FFMetrics/logs/psnr_logfile-6.txt'" -f null -
Input #0, matroska,webm, from 'G:\Аниме\Онгоинги\!_35_Лето_2024\DreamCast\Витубер - Я стала популярной после того, как забыла выключить стрим\[DC] Vden - 04_Telegram_HEVC.mkv':
  Metadata:
    COMPATIBLE_BRANDS: isomiso2avc1mp41
    MAJOR_BRAND     : isom
    MINOR_VERSION   : 512
    ENCODER         : Lavf61.7.100
  Duration: 00:23:46.73, start: -0.021000, bitrate: 1613 kb/s
  Stream #0:0: Video: hevc (Main 10), yuv420p10le(tv, bt709, progressive), 1920x1080 [SAR 1:1 DAR 16:9], 23.98 fps, 23.98 tbr, 1k tbn (default)
      Metadata:
        HANDLER_NAME    : VideoHandler
        VENDOR_ID       : [0][0][0][0]
        ENCODER         : Lavc61.19.100 libx265
        BPS             : 1416912
        DURATION        : 00:23:46.549708333
        NUMBER_OF_FRAMES: 34203
        NUMBER_OF_BYTES : 252661930
        _STATISTICS_WRITING_APP: mkvpropedit v66.0.0 ('Josie') 64-bit
        _STATISTICS_WRITING_DATE_UTC: 2025-05-07 09:25:27
        _STATISTICS_TAGS: BPS DURATION NUMBER_OF_FRAMES NUMBER_OF_BYTES
  Stream #0:1: Audio: aac (LC), 48000 Hz, stereo, fltp (default)
      Metadata:
        HANDLER_NAME    : SoundHandler
        VENDOR_ID       : [0][0][0][0]
        ENCODER         : Lavc61.19.100 aac
        BPS             : 192899
        DURATION        : 00:23:46.730000000
        NUMBER_OF_FRAMES: 66879
        NUMBER_OF_BYTES : 34401859
        _STATISTICS_WRITING_APP: mkvpropedit v66.0.0 ('Josie') 64-bit
        _STATISTICS_WRITING_DATE_UTC: 2025-05-07 09:25:27
        _STATISTICS_TAGS: BPS DURATION NUMBER_OF_FRAMES NUMBER_OF_BYTES
Input #1, mov,mp4,m4a,3gp,3g2,mj2, from 'G:\Аниме\Онгоинги\!_35_Лето_2024\DreamCast\Витубер - Я стала популярной после того, как забыла выключить стрим\[DC] Vden - 04_Telegram.mp4':
  Metadata:
    major_brand     : isom
    minor_version   : 512
    compatible_brands: isomiso2avc1mp41
    encoder         : Lavf61.1.100
  Duration: 00:23:46.68, start: 0.000000, bitrate: 3890 kb/s
  Stream #1:0[0x1](und): Video: h264 (High) (avc1 / 0x31637661), yuv420p(tv, bt709, progressive), 1920x1080 [SAR 1:1 DAR 16:9], 3743 kb/s, 23.98 fps, 23.98 tbr, 24k tbn (default)
      Metadata:
        handler_name    : VideoHandler
        vendor_id       : [0][0][0][0]
        encoder         : Lavc61.3.100 h264_qsv
  Stream #1:1[0x2](und): Audio: aac (HE-AACv2) (mp4a / 0x6134706D), 48000 Hz, stereo, fltp, 144 kb/s (default)
      Metadata:
        handler_name    : SoundHandler
        vendor_id       : [0][0][0][0]
Stream mapping:
  Stream #0:0 (hevc) -> settb:default
  Stream #1:0 (h264) -> settb:default
  psnr:default -> Stream #0:0 (wrapped_avframe)
  Stream #0:1 -> #0:1 (aac (native) -> pcm_s16le (native))
Output #0, null, to 'pipe:':
  Metadata:
    COMPATIBLE_BRANDS: isomiso2avc1mp41
    MAJOR_BRAND     : isom
    MINOR_VERSION   : 512
    encoder         : Lavf61.7.100
  Stream #0:0: Video: wrapped_avframe, yuv420p10le(tv, bt709, progressive), 1920x1080 [SAR 1:1 DAR 16:9], q=2-31, 200 kb/s, 23.98 fps, 23.98 tbn
      Metadata:
        encoder         : Lavc61.19.100 wrapped_avframe
  Stream #0:1: Audio: pcm_s16le, 48000 Hz, stereo, s16, 1536 kb/s (default)
      Metadata:
        HANDLER_NAME    : SoundHandler
        VENDOR_ID       : [0][0][0][0]
        _STATISTICS_TAGS: BPS DURATION NUMBER_OF_FRAMES NUMBER_OF_BYTES
        BPS             : 192899
        DURATION        : 00:23:46.730000000
        NUMBER_OF_FRAMES: 66879
        NUMBER_OF_BYTES : 34401859
        _STATISTICS_WRITING_APP: mkvpropedit v66.0.0 ('Josie') 64-bit
        _STATISTICS_WRITING_DATE_UTC: 2025-05-07 09:25:27
        encoder         : Lavc61.19.100 pcm_s16le
frame=  164 fps=0.0 q=-0.0 size=N/A time=00:00:06.84 bitrate=N/A speed=13.3x    frame=  423 fps=413 q=-0.0 size=N/A time=00:00:17.64 bitrate=N/A speed=17.2x    frame=  678 fps=438 q=-0.0 size=N/A time=00:00:28.27 bitrate=N/A speed=18.3x    frame=  883 fps=429 q=-0.0 size=N/A time=00:00:36.82 bitrate=N/A speed=17.9x    frame= 1079 fps=418 q=-0.0 size=N/A time=00:00:45.00 bitrate=N/A speed=17.4x    frame= 1278 fps=414 q=-0.0 size=N/A time=00:00:53.30 bitrate=N/A speed=17.3x    frame= 1484 fps=411 q=-0.0 size=N/A time=00:01:01.89 bitrate=N/A speed=17.1x    frame= 1676 fps=407 q=-0.0 size=N/A time=00:01:09.90 bitrate=N/A speed=  17x    frame= 1888 fps=407 q=-0.0 size=N/A time=00:01:18.74 bitrate=N/A speed=  17x    frame= 2057 fps=400 q=-0.0 size=N/A time=00:01:25.79 bitrate=N/A speed=16.7x    frame= 2228 fps=393 q=-0.0 size=N/A time=00:01:32.92 bitrate=N/A speed=16.4x    frame= 2396 fps=388 q=-0.0 size=N/A time=00:01:39.93 bitrate=N/A speed=16.2x    frame= 2549 fps=380 q=-0.0 size=N/A time=00:01:46.31 bitrate=N/A speed=15.9x    frame= 2727 fps=378 q=-0.0 size=N/A time=00:01:53.73 bitrate=N/A speed=15.8x    frame= 2910 fps=376 q=-0.0 size=N/A time=00:02:01.37 bitrate=N/A speed=15.7x    frame= 3113 fps=378 q=-0.0 size=N/A time=00:02:09.83 bitrate=N/A speed=15.8x    frame= 3375 fps=385 q=-0.0 size=N/A time=00:02:20.76 bitrate=N/A speed=16.1x    frame= 3629 fps=391 q=-0.0 size=N/A time=00:02:31.35 bitrate=N/A speed=16.3x    frame= 3856 fps=394 q=-0.0 size=N/A time=00:02:40.82 bitrate=N/A speed=16.4x    frame= 4076 fps=396 q=-0.0 size=N/A time=00:02:50.00 bitrate=N/A speed=16.5x    frame= 4344 fps=401 q=-0.0 size=N/A time=00:03:01.18 bitrate=N/A speed=16.7x    frame= 4560 fps=402 q=-0.0 size=N/A time=00:03:10.19 bitrate=N/A speed=16.8x    frame= 4794 fps=404 q=-0.0 size=N/A time=00:03:19.94 bitrate=N/A speed=16.9x    frame= 5053 fps=408 q=-0.0 size=N/A time=00:03:30.75 bitrate=N/A speed=  17x    frame= 5315 fps=412 q=-0.0 size=N/A time=00:03:41.67 bitrate=N/A speed=17.2x    frame= 5563 fps=415 q=-0.0 size=N/A time=00:03:52.02 bitrate=N/A speed=17.3x    frame= 5800 fps=417 q=-0.0 size=N/A time=00:04:01.90 bitrate=N/A speed=17.4x    frame= 6058 fps=420 q=-0.0 size=N/A time=00:04:12.66 bitrate=N/A speed=17.5x    frame= 6344 fps=424 q=-0.0 size=N/A time=00:04:24.59 bitrate=N/A speed=17.7x    frame= 6599 fps=426 q=-0.0 size=N/A time=00:04:35.23 bitrate=N/A speed=17.8x    frame= 6862 fps=429 q=-0.0 size=N/A time=00:04:46.20 bitrate=N/A speed=17.9x    frame= 7085 fps=429 q=-0.0 size=N/A time=00:04:55.50 bitrate=N/A speed=17.9x    frame= 7331 fps=431 q=-0.0 size=N/A time=00:05:05.76 bitrate=N/A speed=  18x    frame= 7589 fps=432 q=-0.0 size=N/A time=00:05:16.52 bitrate=N/A speed=  18x    frame= 7816 fps=433 q=-0.0 size=N/A time=00:05:25.99 bitrate=N/A speed=18.1x    frame= 8077 fps=435 q=-0.0 size=N/A time=00:05:36.87 bitrate=N/A speed=18.1x    frame= 8311 fps=435 q=-0.0 size=N/A time=00:05:46.63 bitrate=N/A speed=18.1x    frame= 8586 fps=438 q=-0.0 size=N/A time=00:05:58.10 bitrate=N/A speed=18.3x    frame= 8857 fps=440 q=-0.0 size=N/A time=00:06:09.41 bitrate=N/A speed=18.3x    frame= 9086 fps=440 q=-0.0 size=N/A time=00:06:18.96 bitrate=N/A speed=18.3x    frame= 9313 fps=440 q=-0.0 size=N/A time=00:06:28.42 bitrate=N/A speed=18.3x    frame= 9574 fps=441 q=-0.0 size=N/A time=00:06:39.31 bitrate=N/A speed=18.4x    frame= 9798 fps=441 q=-0.0 size=N/A time=00:06:48.65 bitrate=N/A speed=18.4x    frame=10007 fps=440 q=-0.0 size=N/A time=00:06:57.37 bitrate=N/A speed=18.4x    frame=10217 fps=440 q=-0.0 size=N/A time=00:07:06.13 bitrate=N/A speed=18.3x    frame=10457 fps=440 q=-0.0 size=N/A time=00:07:16.14 bitrate=N/A speed=18.4x    frame=10667 fps=439 q=-0.0 size=N/A time=00:07:24.90 bitrate=N/A speed=18.3x    frame=10905 fps=440 q=-0.0 size=N/A time=00:07:34.82 bitrate=N/A speed=18.3x    frame=11158 fps=441 q=-0.0 size=N/A time=00:07:45.38 bitrate=N/A speed=18.4x    frame=11394 fps=441 q=-0.0 size=N/A time=00:07:55.22 bitrate=N/A speed=18.4x    frame=11603 fps=440 q=-0.0 size=N/A time=00:08:03.94 bitrate=N/A speed=18.4x    frame=11842 fps=441 q=-0.0 size=N/A time=00:08:13.91 bitrate=N/A speed=18.4x    frame=12086 fps=441 q=-0.0 size=N/A time=00:08:24.08 bitrate=N/A speed=18.4x    frame=12336 fps=442 q=-0.0 size=N/A time=00:08:34.51 bitrate=N/A speed=18.5x    frame=12578 fps=443 q=-0.0 size=N/A time=00:08:44.60 bitrate=N/A speed=18.5x    frame=12810 fps=443 q=-0.0 size=N/A time=00:08:54.28 bitrate=N/A speed=18.5x    frame=13050 fps=443 q=-0.0 size=N/A time=00:09:04.29 bitrate=N/A speed=18.5x    frame=13292 fps=444 q=-0.0 size=N/A time=00:09:14.38 bitrate=N/A speed=18.5x    frame=13549 fps=445 q=-0.0 size=N/A time=00:09:25.10 bitrate=N/A speed=18.5x    frame=13761 fps=444 q=-0.0 size=N/A time=00:09:33.94 bitrate=N/A speed=18.5x    frame=14020 fps=445 q=-0.0 size=N/A time=00:09:44.75 bitrate=N/A speed=18.6x    frame=14248 fps=445 q=-0.0 size=N/A time=00:09:54.26 bitrate=N/A speed=18.6x    frame=14520 fps=446 q=-0.0 size=N/A time=00:10:05.60 bitrate=N/A speed=18.6x    frame=14761 fps=447 q=-0.0 size=N/A time=00:10:15.65 bitrate=N/A speed=18.6x    frame=15014 fps=447 q=-0.0 size=N/A time=00:10:26.20 bitrate=N/A speed=18.7x    frame=15251 fps=448 q=-0.0 size=N/A time=00:10:36.09 bitrate=N/A speed=18.7x    frame=15505 fps=448 q=-0.0 size=N/A time=00:10:46.68 bitrate=N/A speed=18.7x    frame=15713 fps=448 q=-0.0 size=N/A time=00:10:55.36 bitrate=N/A speed=18.7x    frame=15913 fps=447 q=-0.0 size=N/A time=00:11:03.70 bitrate=N/A speed=18.6x    frame=16080 fps=445 q=-0.0 size=N/A time=00:11:10.67 bitrate=N/A speed=18.6x    frame=16325 fps=445 q=-0.0 size=N/A time=00:11:20.93 bitrate=N/A speed=18.6x    frame=16585 fps=446 q=-0.0 size=N/A time=00:11:31.73 bitrate=N/A speed=18.6x    frame=16803 fps=446 q=-0.0 size=N/A time=00:11:40.82 bitrate=N/A speed=18.6x    frame=17049 fps=446 q=-0.0 size=N/A time=00:11:51.08 bitrate=N/A speed=18.6x    frame=17272 fps=446 q=-0.0 size=N/A time=00:12:00.38 bitrate=N/A speed=18.6x    frame=17531 fps=447 q=-0.0 size=N/A time=00:12:11.18 bitrate=N/A speed=18.6x    frame=17783 fps=447 q=-0.0 size=N/A time=00:12:21.69 bitrate=N/A speed=18.7x    frame=18001 fps=447 q=-0.0 size=N/A time=00:12:30.79 bitrate=N/A speed=18.7x    frame=18245 fps=447 q=-0.0 size=N/A time=00:12:40.96 bitrate=N/A speed=18.7x    frame=18511 fps=448 q=-0.0 size=N/A time=00:12:52.06 bitrate=N/A speed=18.7x    frame=18738 fps=448 q=-0.0 size=N/A time=00:13:01.53 bitrate=N/A speed=18.7x    frame=18981 fps=448 q=-0.0 size=N/A time=00:13:11.66 bitrate=N/A speed=18.7x    frame=19212 fps=448 q=-0.0 size=N/A time=00:13:21.30 bitrate=N/A speed=18.7x    frame=19462 fps=449 q=-0.0 size=N/A time=00:13:31.72 bitrate=N/A speed=18.7x    frame=19678 fps=449 q=-0.0 size=N/A time=00:13:40.73 bitrate=N/A speed=18.7x    frame=19847 fps=447 q=-0.0 size=N/A time=00:13:47.78 bitrate=N/A speed=18.6x    frame=20008 fps=446 q=-0.0 size=N/A time=00:13:54.50 bitrate=N/A speed=18.6x    frame=20264 fps=446 q=-0.0 size=N/A time=00:14:05.17 bitrate=N/A speed=18.6x    frame=20495 fps=446 q=-0.0 size=N/A time=00:14:14.81 bitrate=N/A speed=18.6x    frame=20715 fps=446 q=-0.0 size=N/A time=00:14:23.98 bitrate=N/A speed=18.6x    frame=20887 fps=445 q=-0.0 size=N/A time=00:14:31.16 bitrate=N/A speed=18.5x    frame=21119 fps=445 q=-0.0 size=N/A time=00:14:40.83 bitrate=N/A speed=18.5x    frame=21354 fps=445 q=-0.0 size=N/A time=00:14:50.63 bitrate=N/A speed=18.6x    frame=21635 fps=446 q=-0.0 size=N/A time=00:15:02.35 bitrate=N/A speed=18.6x    frame=21883 fps=446 q=-0.0 size=N/A time=00:15:12.70 bitrate=N/A speed=18.6x    frame=22149 fps=447 q=-0.0 size=N/A time=00:15:23.79 bitrate=N/A speed=18.6x    frame=22421 fps=448 q=-0.0 size=N/A time=00:15:35.14 bitrate=N/A speed=18.7x    frame=22663 fps=448 q=-0.0 size=N/A time=00:15:45.23 bitrate=N/A speed=18.7x    frame=22921 fps=449 q=-0.0 size=N/A time=00:15:55.99 bitrate=N/A speed=18.7x    frame=23149 fps=449 q=-0.0 size=N/A time=00:16:05.50 bitrate=N/A speed=18.7x    frame=23399 fps=449 q=-0.0 size=N/A time=00:16:15.93 bitrate=N/A speed=18.7x    frame=23620 fps=449 q=-0.0 size=N/A time=00:16:25.15 bitrate=N/A speed=18.7x    frame=23873 fps=449 q=-0.0 size=N/A time=00:16:35.70 bitrate=N/A speed=18.7x    frame=24128 fps=450 q=-0.0 size=N/A time=00:16:46.33 bitrate=N/A speed=18.8x    frame=24358 fps=449 q=-0.0 size=N/A time=00:16:55.93 bitrate=N/A speed=18.7x    frame=24613 fps=450 q=-0.0 size=N/A time=00:17:06.56 bitrate=N/A speed=18.8x    frame=24884 fps=451 q=-0.0 size=N/A time=00:17:17.87 bitrate=N/A speed=18.8x    frame=25103 fps=450 q=-0.0 size=N/A time=00:17:27.00 bitrate=N/A speed=18.8x    frame=25301 fps=450 q=-0.0 size=N/A time=00:17:35.26 bitrate=N/A speed=18.8x    frame=25522 fps=450 q=-0.0 size=N/A time=00:17:44.48 bitrate=N/A speed=18.8x    frame=25779 fps=450 q=-0.0 size=N/A time=00:17:55.19 bitrate=N/A speed=18.8x    frame=26039 fps=450 q=-0.0 size=N/A time=00:18:06.04 bitrate=N/A speed=18.8x    frame=26306 fps=451 q=-0.0 size=N/A time=00:18:17.17 bitrate=N/A speed=18.8x    frame=26571 fps=451 q=-0.0 size=N/A time=00:18:28.23 bitrate=N/A speed=18.8x    frame=26815 fps=452 q=-0.0 size=N/A time=00:18:38.40 bitrate=N/A speed=18.8x    frame=27066 fps=452 q=-0.0 size=N/A time=00:18:48.87 bitrate=N/A speed=18.9x    frame=27333 fps=452 q=-0.0 size=N/A time=00:19:00.01 bitrate=N/A speed=18.9x    frame=27596 fps=453 q=-0.0 size=N/A time=00:19:10.98 bitrate=N/A speed=18.9x    frame=27834 fps=453 q=-0.0 size=N/A time=00:19:20.90 bitrate=N/A speed=18.9x    frame=28096 fps=453 q=-0.0 size=N/A time=00:19:31.83 bitrate=N/A speed=18.9x    frame=28348 fps=454 q=-0.0 size=N/A time=00:19:42.34 bitrate=N/A speed=18.9x    frame=28605 fps=454 q=-0.0 size=N/A time=00:19:53.06 bitrate=N/A speed=18.9x    frame=28794 fps=453 q=-0.0 size=N/A time=00:20:00.94 bitrate=N/A speed=18.9x    frame=28936 fps=452 q=-0.0 size=N/A time=00:20:06.87 bitrate=N/A speed=18.9x    frame=29074 fps=451 q=-0.0 size=N/A time=00:20:12.62 bitrate=N/A speed=18.8x    frame=29217 fps=449 q=-0.0 size=N/A time=00:20:18.59 bitrate=N/A speed=18.7x    frame=29345 fps=448 q=-0.0 size=N/A time=00:20:23.93 bitrate=N/A speed=18.7x    frame=29487 fps=446 q=-0.0 size=N/A time=00:20:29.85 bitrate=N/A speed=18.6x    frame=29614 fps=445 q=-0.0 size=N/A time=00:20:35.15 bitrate=N/A speed=18.5x    frame=29759 fps=443 q=-0.0 size=N/A time=00:20:41.19 bitrate=N/A speed=18.5x    frame=29897 fps=442 q=-0.0 size=N/A time=00:20:46.95 bitrate=N/A speed=18.4x    frame=30023 fps=441 q=-0.0 size=N/A time=00:20:52.20 bitrate=N/A speed=18.4x    frame=30146 fps=439 q=-0.0 size=N/A time=00:20:57.33 bitrate=N/A speed=18.3x    frame=30305 fps=438 q=-0.0 size=N/A time=00:21:03.97 bitrate=N/A speed=18.3x    frame=30434 fps=437 q=-0.0 size=N/A time=00:21:09.35 bitrate=N/A speed=18.2x    frame=30578 fps=436 q=-0.0 size=N/A time=00:21:15.35 bitrate=N/A speed=18.2x    frame=30733 fps=435 q=-0.0 size=N/A time=00:21:21.82 bitrate=N/A speed=18.1x    frame=30934 fps=434 q=-0.0 size=N/A time=00:21:30.20 bitrate=N/A speed=18.1x    frame=31176 fps=434 q=-0.0 size=N/A time=00:21:40.29 bitrate=N/A speed=18.1x    frame=31402 fps=435 q=-0.0 size=N/A time=00:21:49.72 bitrate=N/A speed=18.1x    frame=31600 fps=434 q=-0.0 size=N/A time=00:21:57.98 bitrate=N/A speed=18.1x    frame=31783 fps=434 q=-0.0 size=N/A time=00:22:05.61 bitrate=N/A speed=18.1x    frame=31973 fps=433 q=-0.0 size=N/A time=00:22:13.54 bitrate=N/A speed=18.1x    frame=32152 fps=433 q=-0.0 size=N/A time=00:22:21.00 bitrate=N/A speed=  18x    frame=32320 fps=432 q=-0.0 size=N/A time=00:22:28.01 bitrate=N/A speed=  18x    frame=32499 fps=431 q=-0.0 size=N/A time=00:22:35.47 bitrate=N/A speed=  18x    frame=32672 fps=431 q=-0.0 size=N/A time=00:22:42.69 bitrate=N/A speed=  18x    frame=32846 fps=430 q=-0.0 size=N/A time=00:22:49.95 bitrate=N/A speed=17.9x    frame=33007 fps=429 q=-0.0 size=N/A time=00:22:56.66 bitrate=N/A speed=17.9x    frame=33210 fps=429 q=-0.0 size=N/A time=00:23:05.13 bitrate=N/A speed=17.9x    frame=33370 fps=428 q=-0.0 size=N/A time=00:23:11.80 bitrate=N/A speed=17.9x    frame=33582 fps=428 q=-0.0 size=N/A time=00:23:20.64 bitrate=N/A speed=17.9x    frame=33808 fps=428 q=-0.0 size=N/A time=00:23:30.07 bitrate=N/A speed=17.9x    frame=34043 fps=428 q=-0.0 size=N/A time=00:23:39.87 bitrate=N/A speed=17.9x    [Parsed_psnr_10 @ 000001477e0e80c0] PSNR y:47.732555 u:49.187974 v:48.982764 average:48.138080 min:39.870811 max:inf
[out#0/null @ 000001477b774e00] video:14697KiB audio:267516KiB subtitle:0KiB other streams:0KiB global headers:0KiB muxing overhead: unknown
frame=34203 fps=428 q=-0.0 Lsize=N/A time=00:23:46.55 bitrate=N/A speed=17.9x    
